<svg width="17" height="16" viewBox="0 0 17 16" fill="none" xmlns="http://www.w3.org/2000/svg">
<g clip-path="url(#clip0_4016_356)">
<path d="M11.29 12.9105L9.676 11.2955C9.05184 11.5187 8.37715 11.56 7.73042 11.4147C7.08369 11.2694 6.49153 10.9434 6.02282 10.4747C5.55411 10.006 5.22814 9.41384 5.08283 8.76711C4.93752 8.12039 4.97885 7.44569 5.202 6.82154L3.142 4.76154C1.438 6.27654 0.5 7.99854 0.5 7.99854C0.5 7.99854 3.5 13.4985 8.5 13.4985C9.46049 13.496 10.4102 13.2959 11.29 12.9105ZM5.71 3.08654C6.58981 2.7012 7.53951 2.50105 8.5 2.49854C13.5 2.49854 16.5 7.99854 16.5 7.99854C16.5 7.99854 15.561 9.71954 13.859 11.2365L11.797 9.17453C12.0202 8.55038 12.0615 7.87568 11.9162 7.22896C11.7709 6.58223 11.4449 5.99006 10.9762 5.52135C10.5075 5.05265 9.91531 4.72668 9.26858 4.58136C8.62185 4.43605 7.94716 4.47738 7.323 4.70054L5.71 3.08654Z" fill="#8B5CF6"/>
<path d="M6.025 7.64453C5.96999 8.02884 6.00524 8.42068 6.12796 8.789C6.25068 9.15732 6.45749 9.492 6.73201 9.76652C7.00653 10.041 7.3412 10.2478 7.70953 10.3706C8.07785 10.4933 8.46969 10.5285 8.854 10.4735L6.025 7.64453ZM10.975 8.35253L8.146 5.52253C8.53031 5.46752 8.92215 5.50278 9.29047 5.62549C9.65879 5.74821 9.99347 5.95502 10.268 6.22954C10.5425 6.50406 10.7493 6.83874 10.872 7.20706C10.9948 7.57538 11.03 7.96722 10.975 8.35153V8.35253ZM14.146 14.3525L2.146 2.35253L2.854 1.64453L14.854 13.6445L14.146 14.3525Z" fill="#8B5CF6"/>
</g>
<defs>
<clipPath id="clip0_4016_356">
<rect width="16" height="16" fill="white" transform="translate(0.5 -0.00146484)"/>
</clipPath>
</defs>
</svg>
