<svg width="17" height="16" viewBox="0 0 17 16" fill="none" xmlns="http://www.w3.org/2000/svg">
<g clip-path="url(#clip0_4016_353)">
<path d="M11 7.99854C11 8.66158 10.7366 9.29746 10.2678 9.7663C9.79893 10.2351 9.16304 10.4985 8.5 10.4985C7.83696 10.4985 7.20107 10.2351 6.73223 9.7663C6.26339 9.29746 6 8.66158 6 7.99854C6 7.33549 6.26339 6.69961 6.73223 6.23077C7.20107 5.76193 7.83696 5.49854 8.5 5.49854C9.16304 5.49854 9.79893 5.76193 10.2678 6.23077C10.7366 6.69961 11 7.33549 11 7.99854Z" fill="#8B5CF6"/>
<path d="M0.5 7.99854C0.5 7.99854 3.5 2.49854 8.5 2.49854C13.5 2.49854 16.5 7.99854 16.5 7.99854C16.5 7.99854 13.5 13.4985 8.5 13.4985C3.5 13.4985 0.5 7.99854 0.5 7.99854ZM8.5 11.4985C9.42826 11.4985 10.3185 11.1298 10.9749 10.4734C11.6313 9.81703 12 8.92679 12 7.99854C12 7.07028 11.6313 6.18004 10.9749 5.52366C10.3185 4.86728 9.42826 4.49854 8.5 4.49854C7.57174 4.49854 6.6815 4.86728 6.02513 5.52366C5.36875 6.18004 5 7.07028 5 7.99854C5 8.92679 5.36875 9.81703 6.02513 10.4734C6.6815 11.1298 7.57174 11.4985 8.5 11.4985Z" fill="#8B5CF6"/>
</g>
<defs>
<clipPath id="clip0_4016_353">
<rect width="16" height="16" fill="white" transform="translate(0.5 -0.00146484)"/>
</clipPath>
</defs>
</svg>
